<?xml version="1.0" encoding="utf-8"?>
<svg viewBox="2.988 -229.027 491.472 786.092" xmlns="http://www.w3.org/2000/svg">
  <defs>
    <linearGradient x1="0" y1="0" x2="1" y2="0" gradientUnits="userSpaceOnUse" gradientTransform="matrix(2.30025e-15,-37.566,37.566,2.30025e-15,416.455,540.999)" id="map-marker-38-f">
      <stop offset="0" stop-color="rgb(107, 107, 107)"/>
      <stop offset="1" stop-color="rgb(191, 191, 191)"/>
    </linearGradient>
    <linearGradient x1="0" y1="0" x2="1" y2="0" gradientUnits="userSpaceOnUse" gradientTransform="matrix(1.16666e-15,-19.053,19.053,1.16666e-15,414.482,522.486)" id="map-marker-38-s">
      <stop offset="0" stop-color="rgb(82, 82, 82)"/>
      <stop offset="1" stop-color="rgb(122, 120, 120)"/>
    </linearGradient>
  </defs>
  <g id="Layer_1" transform="matrix(12.752443, 0, 0, 8.778748, 18.085594, 38.982887)" style=""/>
  <g transform="matrix(19.5417, 0, 0, 19.5417, -7890.522461, -10058.904297)">
    <path d="M416.544,503.612C409.971,503.612 404.5,509.303 404.5,515.478C404.5,518.256 406.064,521.786 407.194,524.224L416.5,542.096L425.762,524.224C426.892,521.786 428.5,518.433 428.5,515.478C428.5,509.303 423.117,503.612 416.544,503.612ZM416.544,510.767C419.128,510.784 421.223,512.889 421.223,515.477C421.223,518.065 419.128,520.14 416.544,520.156C413.96,520.139 411.865,518.066 411.865,515.477C411.865,512.889 413.96,510.784 416.544,510.767Z" stroke-width="1.1px" fill="url(#map-marker-38-f)" stroke="url(#map-marker-38-s)"/>
  </g>
  <g id="g-1" transform="matrix(19.567957, 0, 0, 11.920641, -101.594521, -197.155441)" style=""/>
  <g id="icons" transform="matrix(19.567957, 0, 0, 11.920641, -104.824532, -39.153507)" style="">
    <path class="st0" d="M6.2,3.5L3.5,6.2c-0.7,0.7-0.7,1.9,0,2.7l9.2,9.2l-9.2,9.2c-0.7,0.7-0.7,1.9,0,2.7l2.6,2.6   c0.7,0.7,1.9,0.7,2.7,0l9.2-9.2l9.2,9.2c0.7,0.7,1.9,0.7,2.7,0l2.6-2.6c0.7-0.7,0.7-1.9,0-2.7L23.3,18l9.2-9.2   c0.7-0.7,0.7-1.9,0-2.7l-2.6-2.6c-0.7-0.7-1.9-0.7-2.7,0L18,12.7L8.8,3.5C8.1,2.8,6.9,2.8,6.2,3.5z" id="close_1_" style="fill: rgb(223, 7, 7);"/>
  </g>
</svg>